<?xml version="1.0" encoding="iso-8859-1"?>
<!-- Uploaded to: SVG Repo, www.svgrepo.com, Generator: SVG Repo Mixer Tools -->
<svg height="800px" width="800px" version="1.1" id="Layer_1" xmlns="http://www.w3.org/2000/svg" xmlns:xlink="http://www.w3.org/1999/xlink" 
	 viewBox="0 0 512 512" xml:space="preserve">
<g transform="translate(0 1)">
	<g>
		<path style="fill:#FFE100;" d="M392.468,178.2c0,5.12-3.413,8.533-8.533,8.533s-8.533-3.413-8.533-8.533
			c0-5.12,3.413-8.533,8.533-8.533S392.468,173.08,392.468,178.2"/>
		<path style="fill:#FFE100;" d="M486.334,289.133c0,5.12-3.413,8.533-8.533,8.533s-8.533-3.413-8.533-8.533
			c0-5.12,3.413-8.533,8.533-8.533S486.334,284.013,486.334,289.133"/>
		<path style="fill:#FFE100;" d="M435.134,442.733c0,5.12-3.413,8.533-8.533,8.533c-5.12,0-8.533-3.413-8.533-8.533
			c0-5.12,3.413-8.533,8.533-8.533C431.721,434.2,435.134,437.613,435.134,442.733"/>
		<path style="fill:#FFE100;" d="M51.134,144.067c0,5.12-3.413,8.533-8.533,8.533s-8.533-3.413-8.533-8.533
			c0-5.12,3.413-8.533,8.533-8.533S51.134,138.947,51.134,144.067"/>
		<path style="fill:#FFE100;" d="M42.601,468.333c0,5.12-3.413,8.533-8.533,8.533s-8.533-3.413-8.533-8.533
			c0-5.12,3.413-8.533,8.533-8.533S42.601,463.213,42.601,468.333"/>
		<path style="fill:#FFE100;" d="M341.268,109.933c-0.853,0-2.56,0-3.413-0.853l-76.8-34.133c-0.853,0-1.707-0.853-2.56-1.707
			l-32.427-32.427l-64-16.213l-48.64,16.213c-4.267,1.707-9.387-0.853-11.093-5.12s0.853-9.387,5.12-11.093l51.2-17.067
			c2.56,0,4.267,0,5.12,0L232.041,24.6c1.707,0,2.56,0.853,4.267,2.56l33.28,33.28l72.533,32.427l47.787-16.213l41.813-17.067
			c1.707-0.853,3.413-0.853,5.12-0.853l51.2,8.533c4.267,0.853,7.68,5.12,6.827,10.24c-0.853,4.267-5.12,7.68-10.24,6.827
			l-48.64-8.533l-40.107,16.213l-52.053,17.067C342.974,109.933,342.121,109.933,341.268,109.933z"/>
		<path style="fill:#FFE100;" d="M196.201,127c-2.56,0-5.12-0.853-6.827-3.413c-2.56-3.413-1.707-9.387,1.707-11.947l68.267-51.2
			c3.413-2.56,9.387-1.707,11.947,1.707c2.56,3.413,1.707,9.387-1.707,11.947l-68.267,51.2C199.614,126.147,197.908,127,196.201,127
			z"/>
		<path style="fill:#FFE100;" d="M123.668,442.733h162.133c16.213,0,29.867,13.653,29.867,29.867s-13.653,29.867-29.867,29.867
			H123.668c-16.213,0-29.867-13.653-29.867-29.867S107.454,442.733,123.668,442.733"/>
		<path style="fill:#FFE100;" d="M110.868,374.467h187.733c18.773,0,34.133,15.36,34.133,34.133
			c0,18.773-15.36,34.133-34.133,34.133H110.868c-18.773,0-34.133-15.36-34.133-34.133
			C76.734,389.827,92.094,374.467,110.868,374.467"/>
		<path style="fill:#FFE100;" d="M93.801,237.933h221.867c18.773,0,34.133,15.36,34.133,34.133s-15.36,34.133-34.133,34.133H93.801
			c-18.773,0-34.133-15.36-34.133-34.133S75.028,237.933,93.801,237.933"/>
		<path style="fill:#FFE100;" d="M93.801,306.2h221.867c18.773,0,34.133,15.36,34.133,34.133s-15.36,34.133-34.133,34.133H93.801
			c-18.773,0-34.133-15.36-34.133-34.133S75.028,306.2,93.801,306.2"/>
	</g>
	<path style="fill:#63D3FD;" d="M247.401,374.467h-85.333v-59.733c0-23.893,18.773-42.667,42.667-42.667
		s42.667,18.773,42.667,42.667V374.467z"/>
	<path style="fill:#3DB9F9;" d="M204.734,272.067c-4.267,0-8.533,0.853-12.8,2.56c17.067,5.12,29.867,21.333,29.867,40.107v59.733
		h25.6v-59.733C247.401,290.84,228.628,272.067,204.734,272.067"/>
	<path style="fill:#FFE100;" d="M110.868,169.667h187.733c18.773,0,34.133,15.36,34.133,34.133s-15.36,34.133-34.133,34.133H110.868
		c-18.773,0-34.133-15.36-34.133-34.133S92.094,169.667,110.868,169.667"/>
	<g>
		<path style="fill:#FFA800;" d="M298.601,169.667h-25.6c18.773,0,34.133,15.36,34.133,34.133s-15.36,34.133-34.133,34.133h25.6
			c18.773,0,34.133-15.36,34.133-34.133S317.374,169.667,298.601,169.667"/>
		<path style="fill:#FFA800;" d="M315.668,237.933h-25.6c18.773,0,34.133,15.36,34.133,34.133s-15.36,34.133-34.133,34.133h25.6
			c18.773,0,34.133-15.36,34.133-34.133S334.441,237.933,315.668,237.933"/>
		<path style="fill:#FFA800;" d="M315.668,306.2h-25.6c18.773,0,34.133,15.36,34.133,34.133s-15.36,34.133-34.133,34.133h25.6
			c18.773,0,34.133-15.36,34.133-34.133S334.441,306.2,315.668,306.2"/>
		<path style="fill:#FFA800;" d="M298.601,374.467h-25.6c18.773,0,34.133,15.36,34.133,34.133c0,18.773-15.36,34.133-34.133,34.133
			h25.6c18.773,0,34.133-15.36,34.133-34.133C332.734,389.827,317.374,374.467,298.601,374.467"/>
	</g>
	<path style="fill:#FFE100;" d="M123.668,109.933h162.133c16.213,0,29.867,13.653,29.867,29.867s-13.653,29.867-29.867,29.867
		H123.668c-16.213,0-29.867-13.653-29.867-29.867S107.454,109.933,123.668,109.933"/>
	<g>
		<path style="fill:#FFA800;" d="M285.801,109.933h-25.6c16.213,0,29.867,13.653,29.867,29.867s-13.653,29.867-29.867,29.867h25.6
			c16.213,0,29.867-13.653,29.867-29.867S302.014,109.933,285.801,109.933"/>
		<path style="fill:#FFA800;" d="M285.801,442.733h-25.6c16.213,0,29.867,13.653,29.867,29.867s-13.653,29.867-29.867,29.867h25.6
			c16.213,0,29.867-13.653,29.867-29.867S302.014,442.733,285.801,442.733"/>
	</g>
	<g>
		<path style="fill:#FFFFFF;" d="M110.868,169.667h25.6c-18.773,0-34.133,15.36-34.133,34.133s15.36,34.133,34.133,34.133h-25.6
			c-18.773,0-34.133-15.36-34.133-34.133S92.094,169.667,110.868,169.667"/>
		<path style="fill:#FFFFFF;" d="M93.801,237.933h25.6c-18.773,0-34.133,15.36-34.133,34.133s15.36,34.133,34.133,34.133h-25.6
			c-18.773,0-34.133-15.36-34.133-34.133S75.028,237.933,93.801,237.933"/>
		<path style="fill:#FFFFFF;" d="M93.801,306.2h25.6c-18.773,0-34.133,15.36-34.133,34.133s15.36,34.133,34.133,34.133h-25.6
			c-18.773,0-34.133-15.36-34.133-34.133S75.028,306.2,93.801,306.2"/>
		<path style="fill:#FFFFFF;" d="M110.868,374.467h25.6c-18.773,0-34.133,15.36-34.133,34.133c0,18.773,15.36,34.133,34.133,34.133
			h-25.6c-18.773,0-34.133-15.36-34.133-34.133C76.734,389.827,92.094,374.467,110.868,374.467"/>
		<path style="fill:#FFFFFF;" d="M123.668,109.933h25.6c-16.213,0-29.867,13.653-29.867,29.867s13.653,29.867,29.867,29.867h-25.6
			c-16.213,0-29.867-13.653-29.867-29.867S107.454,109.933,123.668,109.933"/>
		<path style="fill:#FFFFFF;" d="M123.668,442.733h25.6c-16.213,0-29.867,13.653-29.867,29.867s13.653,29.867,29.867,29.867h-25.6
			c-16.213,0-29.867-13.653-29.867-29.867S107.454,442.733,123.668,442.733"/>
	</g>
	<g>
		<path style="fill:#FFE100;" d="M392.468,75.8h-10.24c-32.427,0-58.027-25.6-58.027-58.027V7.533h10.24
			c32.427,0,58.027,25.6,58.027,58.027V75.8z"/>
		<path style="fill:#FFE100;" d="M42.601,92.867h10.24c32.427,0,58.027-25.6,58.027-58.027V24.6h-10.24
			c-32.427,0-58.027,25.6-58.027,58.027V92.867z"/>
	</g>
	<path d="M285.801,511H123.668c-21.333,0-38.4-17.067-38.4-38.4c0-21.333,17.067-38.4,38.4-38.4h162.133
		c21.333,0,38.4,17.067,38.4,38.4C324.201,493.933,307.134,511,285.801,511z M123.668,451.267c-11.947,0-21.333,9.387-21.333,21.333
		c0,11.947,9.387,21.333,21.333,21.333h162.133c11.947,0,21.333-9.387,21.333-21.333c0-11.947-9.387-21.333-21.333-21.333H123.668z"
		/>
	<path d="M298.601,451.267H110.868c-23.893,0-42.667-18.773-42.667-42.667c0-23.893,18.773-42.667,42.667-42.667h187.733
		c23.893,0,42.667,18.773,42.667,42.667C341.268,432.493,322.494,451.267,298.601,451.267z M110.868,383
		c-14.507,0-25.6,11.093-25.6,25.6c0,14.507,11.093,25.6,25.6,25.6h187.733c14.507,0,25.6-11.093,25.6-25.6
		c0-14.507-11.093-25.6-25.6-25.6H110.868z"/>
	<path d="M285.801,178.2H123.668c-21.333,0-38.4-17.067-38.4-38.4s17.067-38.4,38.4-38.4h162.133c21.333,0,38.4,17.067,38.4,38.4
		S307.134,178.2,285.801,178.2z M123.668,118.467c-11.947,0-21.333,9.387-21.333,21.333s9.387,21.333,21.333,21.333h162.133
		c11.947,0,21.333-9.387,21.333-21.333s-9.387-21.333-21.333-21.333H123.668z"/>
	<path d="M298.601,246.467H110.868c-23.893,0-42.667-18.773-42.667-42.667s18.773-42.667,42.667-42.667h187.733
		c23.893,0,42.667,18.773,42.667,42.667S322.494,246.467,298.601,246.467z M110.868,178.2c-14.507,0-25.6,11.093-25.6,25.6
		c0,14.507,11.093,25.6,25.6,25.6h187.733c14.507,0,25.6-11.093,25.6-25.6c0-14.507-11.093-25.6-25.6-25.6H110.868z"/>
	<path d="M341.268,101.4c-0.853,0-2.56,0-3.413-0.853l-76.8-34.133c-0.853,0-1.707-0.853-2.56-1.707L226.068,32.28l-64-16.213
		l-48.64,16.213c-4.267,1.707-9.387-0.853-11.093-5.12s0.853-9.387,5.12-11.093L158.654-1c2.56,0,4.267,0,5.12,0l68.267,17.067
		c1.707,0,2.56,0.853,4.267,2.56l33.28,33.28l72.533,32.427l47.787-16.213l41.813-17.067c1.707-0.853,3.413-0.853,5.12-0.853
		l51.2,8.533c4.267,0.853,7.68,5.12,6.827,10.24c-0.853,4.267-5.12,7.68-10.24,6.827l-48.64-8.533L395.881,83.48l-52.053,17.067
		C342.974,101.4,342.121,101.4,341.268,101.4z"/>
	<path d="M196.201,118.467c-2.56,0-5.12-0.853-6.827-3.413c-2.56-3.413-1.707-9.387,1.707-11.947l68.267-51.2
		c3.413-2.56,9.387-1.707,11.947,1.707c2.56,3.413,1.707,9.387-1.707,11.947l-68.267,51.2
		C199.614,117.613,197.908,118.467,196.201,118.467z"/>
	<path d="M247.401,383h-85.333c-5.12,0-8.533-3.413-8.533-8.533v-59.733c0-28.16,23.04-51.2,51.2-51.2s51.2,23.04,51.2,51.2v59.733
		C255.934,379.587,252.521,383,247.401,383z M170.601,365.933h68.267v-51.2c0-18.773-15.36-34.133-34.133-34.133
		s-34.133,15.36-34.133,34.133V365.933z"/>
	<path d="M162.068,383H93.801c-23.893,0-42.667-18.773-42.667-42.667c0-23.893,18.773-42.667,42.667-42.667h69.12
		c2.56,0,5.12,0.853,6.827,3.413c1.707,2.56,2.56,4.267,1.707,6.827c-0.853,2.56-0.853,4.267-0.853,6.827v59.733
		C170.601,379.587,167.188,383,162.068,383z M93.801,314.733c-14.507,0-25.6,11.093-25.6,25.6c0,14.507,11.093,25.6,25.6,25.6
		h59.733v-51.2H93.801z"/>
	<path d="M315.668,383h-68.267c-5.12,0-8.533-3.413-8.533-8.533v-59.733c0-2.56,0-4.267-0.853-6.827c-0.853-2.56,0-5.12,1.707-6.827
		c1.707-1.707,4.267-3.413,6.827-3.413h69.12c23.893,0,42.667,18.773,42.667,42.667C358.334,364.227,339.561,383,315.668,383z
		 M255.934,365.933h59.733c14.507,0,25.6-11.093,25.6-25.6c0-14.507-11.093-25.6-25.6-25.6h-59.733V365.933z"/>
	<path d="M315.668,314.733h-69.12c-4.267,0-7.68-2.56-8.533-6.827c-3.413-16.213-17.067-27.307-33.28-27.307
		s-29.867,11.093-33.28,27.307c-0.853,4.267-4.267,6.827-8.533,6.827h-69.12c-23.893,0-42.667-18.773-42.667-42.667
		S69.908,229.4,93.801,229.4h221.867c23.893,0,42.667,18.773,42.667,42.667S339.561,314.733,315.668,314.733z M253.374,297.667
		h62.293c14.507,0,25.6-11.093,25.6-25.6s-11.093-25.6-25.6-25.6H93.801c-14.507,0-25.6,11.093-25.6,25.6s11.093,25.6,25.6,25.6
		h62.293c6.827-20.48,26.453-34.133,48.64-34.133S245.694,277.187,253.374,297.667z"/>
	<path d="M392.468,84.333h-10.24c-36.693,0-66.56-29.867-66.56-66.56V7.533c0-5.12,3.413-8.533,8.533-8.533h10.24
		c36.693,0,66.56,29.867,66.56,66.56V75.8C401.001,80.92,397.588,84.333,392.468,84.333z M332.734,16.067v1.707
		c0,27.307,22.187,49.493,49.493,49.493h1.707V65.56c0-27.307-22.187-49.493-49.493-49.493H332.734z"/>
	<path d="M52.841,101.4h-10.24c-5.12,0-8.533-3.413-8.533-8.533v-10.24c0-36.693,29.867-66.56,66.56-66.56h10.24
		c5.12,0,8.533,3.413,8.533,8.533v10.24C119.401,71.533,89.534,101.4,52.841,101.4z M51.134,84.333h1.707
		c27.307,0,49.493-22.187,49.493-49.493v-1.707h-1.707c-27.307,0-49.493,22.187-49.493,49.493V84.333z"/>
	<path d="M383.934,178.2c0,5.12-3.413,8.533-8.533,8.533c-5.12,0-8.533-3.413-8.533-8.533c0-5.12,3.413-8.533,8.533-8.533
		C380.521,169.667,383.934,173.08,383.934,178.2"/>
	<path d="M477.801,289.133c0,5.12-3.413,8.533-8.533,8.533c-5.12,0-8.533-3.413-8.533-8.533c0-5.12,3.413-8.533,8.533-8.533
		C474.388,280.6,477.801,284.013,477.801,289.133"/>
	<path d="M426.601,442.733c0,5.12-3.413,8.533-8.533,8.533s-8.533-3.413-8.533-8.533c0-5.12,3.413-8.533,8.533-8.533
		S426.601,437.613,426.601,442.733"/>
	<path d="M42.601,144.067c0,5.12-3.413,8.533-8.533,8.533s-8.533-3.413-8.533-8.533c0-5.12,3.413-8.533,8.533-8.533
		S42.601,138.947,42.601,144.067"/>
	<path d="M34.068,468.333c0,5.12-3.413,8.533-8.533,8.533s-8.533-3.413-8.533-8.533c0-5.12,3.413-8.533,8.533-8.533
		S34.068,463.213,34.068,468.333"/>
</g>
</svg>