{
	"asset":{
		"generator":"Khronos glTF Blender I/O v4.3.47",
		"version":"2.0"
	},
	"extensionsUsed":[
		"KHR_lights_punctual",
		"KHR_materials_transmission"
	],
	"extensionsRequired":[
		"KHR_lights_punctual"
	],
	"extensions":{
		"KHR_lights_punctual":{
			"lights":[
				{
					"color":[
						1,
						0.25818315148353577,
						0.025186942890286446
					],
					"intensity":543.5141306588226,
					"type":"point",
					"name":"Point.004"
				},
				{
					"color":[
						1,
						0.35544443130493164,
						0.05661723390221596
					],
					"intensity":4348.113045270581,
					"type":"point",
					"name":"Point.005"
				}
			]
		}
	},
	"scene":0,
	"scenes":[
		{
			"name":"Scene",
			"nodes":[
				2
			]
		}
	],
	"nodes":[
		{
			"extensions":{
				"KHR_lights_punctual":{
					"light":0
				}
			},
			"name":"lantern.002",
			"rotation":[
				-0.7071068286895752,
				0,
				0,
				0.7071068286895752
			],
			"translation":[
				0.3781147301197052,
				1.2425352334976196,
				0.35282230377197266
			]
		},
		{
			"extensions":{
				"KHR_lights_punctual":{
					"light":1
				}
			},
			"name":"planet light.002",
			"rotation":[
				-0.7071068286895752,
				0,
				0,
				0.7071068286895752
			],
			"translation":[
				0,
				0,
				0.0003771781921386719
			]
		},
		{
			"children":[
				0,
				1
			],
			"mesh":0,
			"name":"autumn-planet"
		}
	],
	"materials":[
		{
			"doubleSided":true,
			"name":"grass-autumn",
			"pbrMetallicRoughness":{
				"baseColorFactor":[
					1,
					0.41397953033447266,
					0.1264708936214447,
					1
				],
				"metallicFactor":0,
				"roughnessFactor":0.5
			}
		},
		{
			"doubleSided":true,
			"extensions":{
				"KHR_materials_transmission":{
					"transmissionFactor":0.41284406185150146
				}
			},
			"name":"water-autumn",
			"pbrMetallicRoughness":{
				"baseColorFactor":[
					0.17990517616271973,
					0.8003387451171875,
					0.6132026314735413,
					1
				],
				"metallicFactor":0
			}
		},
		{
			"doubleSided":true,
			"name":"house-walls",
			"pbrMetallicRoughness":{
				"baseColorFactor":[
					0.6909920573234558,
					0.6123767495155334,
					0.3494158685207367,
					1
				],
				"metallicFactor":0,
				"roughnessFactor":0.5
			}
		},
		{
			"doubleSided":true,
			"name":"house-roof",
			"pbrMetallicRoughness":{
				"baseColorFactor":[
					0.8002911806106567,
					0.030424419790506363,
					0.03443971276283264,
					1
				],
				"metallicFactor":0,
				"roughnessFactor":0.5
			}
		},
		{
			"doubleSided":true,
			"name":"tree-leaves-autumn",
			"pbrMetallicRoughness":{
				"baseColorFactor":[
					0.801181435585022,
					0.50361168384552,
					0.04329947754740715,
					1
				],
				"metallicFactor":0,
				"roughnessFactor":0.13302752375602722
			}
		},
		{
			"doubleSided":true,
			"name":"tree-trunk",
			"pbrMetallicRoughness":{
				"baseColorFactor":[
					0.12389321625232697,
					0.03111279010772705,
					0.008402273990213871,
					1
				],
				"metallicFactor":0,
				"roughnessFactor":0.5
			}
		},
		{
			"doubleSided":true,
			"extensions":{
				"KHR_materials_transmission":{
					"transmissionFactor":1
				}
			},
			"name":"lantern",
			"pbrMetallicRoughness":{
				"baseColorFactor":[
					0.800000011920929,
					0.800000011920929,
					0.800000011920929,
					1
				],
				"metallicFactor":0,
				"roughnessFactor":0.5
			}
		}
	],
	"meshes":[
		{
			"name":"Icosphere.002",
			"primitives":[
				{
					"attributes":{
						"POSITION":0,
						"NORMAL":1,
						"TEXCOORD_0":2
					},
					"indices":3,
					"material":0
				},
				{
					"attributes":{
						"POSITION":4,
						"NORMAL":5,
						"TEXCOORD_0":6
					},
					"indices":7,
					"material":1
				},
				{
					"attributes":{
						"POSITION":8,
						"NORMAL":9,
						"TEXCOORD_0":10
					},
					"indices":11,
					"material":2
				},
				{
					"attributes":{
						"POSITION":12,
						"NORMAL":13,
						"TEXCOORD_0":14
					},
					"indices":15,
					"material":3
				},
				{
					"attributes":{
						"POSITION":16,
						"NORMAL":17,
						"TEXCOORD_0":18
					},
					"indices":19,
					"material":4
				},
				{
					"attributes":{
						"POSITION":20,
						"NORMAL":21,
						"TEXCOORD_0":22
					},
					"indices":23,
					"material":5
				},
				{
					"attributes":{
						"POSITION":24,
						"NORMAL":25,
						"TEXCOORD_0":26
					},
					"indices":27,
					"material":6
				}
			]
		}
	],
	"accessors":[
		{
			"bufferView":0,
			"componentType":5126,
			"count":787,
			"max":[
				0.8488871455192566,
				1.0882744789123535,
				1.000370979309082
			],
			"min":[
				-0.9999915361404419,
				-0.9999867081642151,
				-0.9996165037155151
			],
			"type":"VEC3"
		},
		{
			"bufferView":1,
			"componentType":5126,
			"count":787,
			"type":"VEC3"
		},
		{
			"bufferView":2,
			"componentType":5126,
			"count":787,
			"type":"VEC2"
		},
		{
			"bufferView":3,
			"componentType":5123,
			"count":903,
			"type":"SCALAR"
		},
		{
			"bufferView":4,
			"componentType":5126,
			"count":366,
			"max":[
				0.9567136764526367,
				0.8174792528152466,
				0.9576497077941895
			],
			"min":[
				-0.5104537606239319,
				-0.9568612575531006,
				-0.9566891193389893
			],
			"type":"VEC3"
		},
		{
			"bufferView":5,
			"componentType":5126,
			"count":366,
			"type":"VEC3"
		},
		{
			"bufferView":6,
			"componentType":5126,
			"count":366,
			"type":"VEC2"
		},
		{
			"bufferView":7,
			"componentType":5123,
			"count":366,
			"type":"SCALAR"
		},
		{
			"bufferView":8,
			"componentType":5126,
			"count":155,
			"max":[
				0.2816821336746216,
				1.6786166429519653,
				0.3125467300415039
			],
			"min":[
				-0.2724713683128357,
				0.9500174522399902,
				-0.30547547340393066
			],
			"type":"VEC3"
		},
		{
			"bufferView":9,
			"componentType":5126,
			"count":155,
			"type":"VEC3"
		},
		{
			"bufferView":10,
			"componentType":5126,
			"count":155,
			"type":"VEC2"
		},
		{
			"bufferView":11,
			"componentType":5123,
			"count":255,
			"type":"SCALAR"
		},
		{
			"bufferView":12,
			"componentType":5126,
			"count":105,
			"max":[
				0.37077608704566956,
				1.5250699520111084,
				0.4271678924560547
			],
			"min":[
				-0.3613666892051697,
				0.956101655960083,
				-0.3958120346069336
			],
			"type":"VEC3"
		},
		{
			"bufferView":13,
			"componentType":5126,
			"count":105,
			"type":"VEC3"
		},
		{
			"bufferView":14,
			"componentType":5126,
			"count":105,
			"type":"VEC2"
		},
		{
			"bufferView":15,
			"componentType":5123,
			"count":171,
			"type":"SCALAR"
		},
		{
			"bufferView":16,
			"componentType":5126,
			"count":264,
			"max":[
				0.0905885100364685,
				1.8739709854125977,
				-0.6399263143539429
			],
			"min":[
				-0.4482504427433014,
				1.105193853378296,
				-1.2960416078567505
			],
			"type":"VEC3"
		},
		{
			"bufferView":17,
			"componentType":5126,
			"count":264,
			"type":"VEC3"
		},
		{
			"bufferView":18,
			"componentType":5126,
			"count":264,
			"type":"VEC2"
		},
		{
			"bufferView":19,
			"componentType":5123,
			"count":402,
			"type":"SCALAR"
		},
		{
			"bufferView":20,
			"componentType":5126,
			"count":32,
			"max":[
				0.0024289488792419434,
				1.187716007232666,
				-0.43243157863616943
			],
			"min":[
				-0.27454230189323425,
				0.6914986968040466,
				-0.8311241865158081
			],
			"type":"VEC3"
		},
		{
			"bufferView":21,
			"componentType":5126,
			"count":32,
			"type":"VEC3"
		},
		{
			"bufferView":22,
			"componentType":5126,
			"count":32,
			"type":"VEC2"
		},
		{
			"bufferView":23,
			"componentType":5123,
			"count":48,
			"type":"SCALAR"
		},
		{
			"bufferView":24,
			"componentType":5126,
			"count":15,
			"max":[
				0.4300827980041504,
				1.1930263042449951,
				0.4042513370513916
			],
			"min":[
				0.3540708124637604,
				1.04938805103302,
				0.295896053314209
			],
			"type":"VEC3"
		},
		{
			"bufferView":25,
			"componentType":5126,
			"count":15,
			"type":"VEC3"
		},
		{
			"bufferView":26,
			"componentType":5126,
			"count":15,
			"type":"VEC2"
		},
		{
			"bufferView":27,
			"componentType":5123,
			"count":21,
			"type":"SCALAR"
		}
	],
	"bufferViews":[
		{
			"buffer":0,
			"byteLength":9444,
			"byteOffset":0,
			"target":34962
		},
		{
			"buffer":0,
			"byteLength":9444,
			"byteOffset":9444,
			"target":34962
		},
		{
			"buffer":0,
			"byteLength":6296,
			"byteOffset":18888,
			"target":34962
		},
		{
			"buffer":0,
			"byteLength":1806,
			"byteOffset":25184,
			"target":34963
		},
		{
			"buffer":0,
			"byteLength":4392,
			"byteOffset":26992,
			"target":34962
		},
		{
			"buffer":0,
			"byteLength":4392,
			"byteOffset":31384,
			"target":34962
		},
		{
			"buffer":0,
			"byteLength":2928,
			"byteOffset":35776,
			"target":34962
		},
		{
			"buffer":0,
			"byteLength":732,
			"byteOffset":38704,
			"target":34963
		},
		{
			"buffer":0,
			"byteLength":1860,
			"byteOffset":39436,
			"target":34962
		},
		{
			"buffer":0,
			"byteLength":1860,
			"byteOffset":41296,
			"target":34962
		},
		{
			"buffer":0,
			"byteLength":1240,
			"byteOffset":43156,
			"target":34962
		},
		{
			"buffer":0,
			"byteLength":510,
			"byteOffset":44396,
			"target":34963
		},
		{
			"buffer":0,
			"byteLength":1260,
			"byteOffset":44908,
			"target":34962
		},
		{
			"buffer":0,
			"byteLength":1260,
			"byteOffset":46168,
			"target":34962
		},
		{
			"buffer":0,
			"byteLength":840,
			"byteOffset":47428,
			"target":34962
		},
		{
			"buffer":0,
			"byteLength":342,
			"byteOffset":48268,
			"target":34963
		},
		{
			"buffer":0,
			"byteLength":3168,
			"byteOffset":48612,
			"target":34962
		},
		{
			"buffer":0,
			"byteLength":3168,
			"byteOffset":51780,
			"target":34962
		},
		{
			"buffer":0,
			"byteLength":2112,
			"byteOffset":54948,
			"target":34962
		},
		{
			"buffer":0,
			"byteLength":804,
			"byteOffset":57060,
			"target":34963
		},
		{
			"buffer":0,
			"byteLength":384,
			"byteOffset":57864,
			"target":34962
		},
		{
			"buffer":0,
			"byteLength":384,
			"byteOffset":58248,
			"target":34962
		},
		{
			"buffer":0,
			"byteLength":256,
			"byteOffset":58632,
			"target":34962
		},
		{
			"buffer":0,
			"byteLength":96,
			"byteOffset":58888,
			"target":34963
		},
		{
			"buffer":0,
			"byteLength":180,
			"byteOffset":58984,
			"target":34962
		},
		{
			"buffer":0,
			"byteLength":180,
			"byteOffset":59164,
			"target":34962
		},
		{
			"buffer":0,
			"byteLength":120,
			"byteOffset":59344,
			"target":34962
		},
		{
			"buffer":0,
			"byteLength":42,
			"byteOffset":59464,
			"target":34963
		}
	],
	"buffers":[
		{
			"byteLength":59508,
			"uri":"autumn-planet-task7-cart263.bin"
		}
	]
}
