<?xml version="1.0" encoding="UTF-8"?>
<svg id="Layer_1" xmlns="http://www.w3.org/2000/svg" xmlns:serif="http://www.serif.com/" version="1.1" viewBox="0 0 1920 1080">
  <!-- Generator: Adobe Illustrator 30.2.0, SVG Export Plug-In . SVG Version: 2.1.1 Build 105)  -->
  <defs>
    <style>
      .st0 {
        fill: none;
      }

      .st1 {
        fill: #e9b800;
      }

      .st2 {
        fill: #d63880;
      }

      .st3 {
        fill: #7e5dd8;
      }
    </style>
  </defs>
  <rect class="st0" x="401.59" y=".02" width="1106.5" height="1079.52"/>
  <path class="st3" d="M985.13,498.82c82.58,102.78,168.84,214.54,177.8,346.09,1.6,23.44.47,47.79-9.5,69.06-9.97,21.29-30.31,38.9-53.78,40.07-20.54,1.01-41.47-10.22-61.02-3.88-30.36,9.87-38.12,55.39-69,63.51-22.83,6-44.59-12.13-59.67-30.3-15.07-18.16-30.85-39.42-54.22-42.8-22.37-3.24-44.43,11.52-66.84,8.46-19.85-2.72-35.65-19.44-42.49-38.28-6.85-18.83-6.22-39.49-4.21-59.42,14.79-146.19,104.59-282.8,242.93-352.51"/>
  <path class="st3" d="M965.81,532.67c-72.24,110.31-151.86,226.87-274.22,276.04-21.78,8.76-45.29,15.21-68.62,12.31-23.31-2.9-46.35-16.81-54.71-38.77-7.3-19.22-3.09-42.6-15.17-59.23-18.76-25.83-64.46-19.15-81.72-45.99-12.76-19.86-2.25-46.17,10.38-66.13,12.62-19.94,27.96-41.52,23.96-64.78-3.85-22.3-24.7-38.71-28.71-60.97-3.55-19.72,7.47-39.9,23.26-52.23,15.81-12.33,35.66-18.13,55.23-22.36,143.63-31.12,301.28,12.08,410.33,122.1"/>
  <path class="st3" d="M927.65,524.76c-127.23-34.61-262.69-74.34-347.27-175.5-15.06-18.03-28.46-38.39-32.92-61.45-4.44-23.07,1.67-49.29,19.97-64.01,16.03-12.89,39.55-16.11,51.64-32.74,18.78-25.82-1.71-67.21,18.49-91.94,14.94-18.27,43.21-16.41,66.08-10.55,22.88,5.84,48.13,13.76,69.02,2.76,20.02-10.55,29.18-35.44,49.12-46.13,17.66-9.47,40.25-5.23,56.87,5.99,16.59,11.21,28.25,28.3,38.34,45.61,73.96,126.97,81.6,290.26,10.65,427.98"/>
  <path class="st3" d="M923.38,486.03c-6.39-131.7-10.48-272.81,59.6-384.51,12.48-19.89,27.7-38.93,48.27-50.29,20.57-11.35,47.4-13.65,67.06-.79,17.21,11.25,27.54,32.63,47.1,38.99,30.35,9.87,63.39-22.4,93.15-10.82,21.99,8.55,28.94,36.02,30.45,59.58,1.52,23.56,1.79,50.02,18.72,66.49,16.21,15.77,42.72,16.79,59.04,32.46,14.47,13.87,17.41,36.67,11.88,55.93-5.52,19.26-18.19,35.62-31.54,50.55-97.89,109.58-250.83,167.31-403.72,142.4"/>
  <path class="st3" d="M958.91,470c123.28-46.8,256.22-94.29,384.1-62.15,22.78,5.72,45.59,14.32,62.75,30.36,17.16,16.05,27.63,40.87,21.48,63.54-5.39,19.85-22.53,36.28-22.53,56.85-.01,31.91,40.88,53.36,39.08,85.23-1.35,23.58-25.32,38.66-47.26,47.39-21.93,8.71-47.03,17.16-57.45,38.33-10,20.31-2.77,45.84-12.63,66.2-8.71,18.04-29.49,27.88-49.52,28.58-20.03.69-39.49-6.3-57.83-14.37-134.47-59.24-236.63-186.85-260.18-339.96"/>
  <path class="st2" d="M947.47,484.96c-84.73-92.49-172.08-183.58-256.88-276.71-.53-.56-1.78.43-1.35,1.07,35.39,52.12,70.53,105.18,108.48,156.32,37.91,51.12,78.63,100.31,124.58,144.09,11.61,11.06,35.86-13.1,25.17-24.77"/>
  <path class="st2" d="M953.13,485.58c-31.9-79.93-82.36-152.53-141.66-213.91-.36-.38-1.63.61-1.35,1.06,22.59,36.25,40.94,75.13,58.17,113.74,17.28,38.65,33.49,77.02,52.77,113.9,4.84,9.25,36.12-4.64,32.07-14.79"/>
  <path class="st2" d="M975.69,464.82c-4.11-51.4-17.45-102.31-38.3-149.61-20.84-47.34-49.15-91.1-82.77-129.21-.4-.47-1.69.48-1.39,1.02,26.39,43.4,44.53,91.01,57.73,138.69,13.23,47.83,21.67,95.65,29.68,143.44,2.01,11.93,36.11,8.78,35.05-4.34"/>
  <path class="st2" d="M963.71,513.66c9.24-56.72,22.29-112.82,39.76-167.84,17.48-54.98,39.36-108.9,66.35-160.54.32-.64-1.04-1.49-1.47-.9-34.61,46.96-66.67,97.37-91.66,151.92-24.97,54.42-42.71,113.06-48.02,173.03-1.36,15.23,32.73,18.54,35.05,4.32"/>
  <path class="st2" d="M980.38,502.65c57.4-91.8,112.74-185.53,170.98-277.57.34-.56-.95-1.52-1.39-1.03-36.28,40.65-73.51,81.33-108.17,124.27-34.65,42.91-66.7,88.09-92.12,136.85-6.42,12.32,23.44,29.05,30.69,17.48"/>
  <path class="st2" d="M988.83,506.39c49.74-21.99,95.59-53.4,134.82-91.24,39.29-37.82,72.02-82.06,96.67-129.59.32-.58-1.04-1.42-1.45-.91-32.24,42.71-72.13,78.71-114.22,109.36-42.26,30.74-86.6,56.32-131.42,80.68-11.19,6.1,2.9,37.31,15.6,31.69"/>
  <path class="st2" d="M983.06,502.86c30.22,49.67,69.05,94.43,113.49,132.17,44.44,37.76,94.46,68.57,147.13,91.37.65.28,1.4-1.14.81-1.52-48.44-30.71-91.05-69.43-128.83-110.91-37.86-41.6-71.01-85.84-103.16-130.62-8.05-11.19-37.15,6.85-29.43,19.51"/>
  <path class="st2" d="M994.34,495.06c32.03,29.92,68.97,54.83,108.47,74.12,39.49,19.32,81.52,33.03,124,41.24.53.11.98-1.42.49-1.63-39.87-16.79-76.64-39.87-110.93-64.59-34.39-24.79-66.35-51.09-99.27-76.14-8.23-6.25-30.94,19.39-22.75,27.01"/>
  <path class="st2" d="M1016.69,512.27c46.43.49,92.75,4.59,138.64,12.92,45.88,8.32,91.36,20.91,135.31,38.65.54.22,1.29-1.2.8-1.52-39.91-25.75-83.16-48.93-129.88-64.87-46.57-15.94-96.68-24.4-146.19-20.46-12.62.98-10.27,35.15,1.33,35.28"/>
  <path class="st2" d="M988.76,486.56c46.12-8.12,92.7-13.14,139.71-14.38,46.98-1.22,94.43,1.36,141.54,8.82.58.09.98-1.47.42-1.66-44.97-16.15-92.38-29.54-141.55-35.59-49.03-6.08-99.84-4.61-147.9,8.36-12.22,3.29-3.76,36.46,7.78,34.45"/>
  <path class="st2" d="M954.94,493.14c-32.99,53.14-59.35,110.74-78.8,170.41-19.46,59.67-32.07,121.39-38.14,183.12-.09.75,1.5,1.02,1.68.28,14.9-60.2,37.53-118.17,63.22-173.77,25.72-55.68,54.45-109.03,82.69-162.49,7.08-13.43-22.26-31.07-30.64-17.55"/>
  <path class="st2" d="M955.41,493.76c-6.91,104.83-4.2,210.74,2.11,315.75.04.64,1.65.68,1.71.03,11.59-104.61,33.13-209.8,31.48-314.95-.21-13.27-34.43-14.08-35.3-.83"/>
  <path class="st2" d="M964.48,504.91c19.44,54.1,35.15,109.53,46.38,166.16,11.22,56.61,17.96,114.43,19.05,172.7.02.71,1.62.81,1.71.1,7.85-57.83,11.73-117.5,7.3-177.39-4.37-59.76-17.22-119.72-41.69-174.79-6.21-13.99-37.6-.36-32.74,13.22"/>
  <path class="st2" d="M974.67,516.92c30.42,42.93,55.04,89.87,72.84,139.74,17.75,49.82,28.68,102.62,30.65,156.49.04.65,1.62.74,1.69.09,7.04-53.57,6.64-109.92-5.22-165.14-11.77-55.06-35.42-108.96-72.05-152.81-9.31-11.19-35.47,10.92-27.91,21.64"/>
  <path class="st2" d="M957.91,480.24c-39.81-18.59-82.75-30.9-126.38-37.05-43.64-6.16-87.96-6.19-131-.83-.54.06-.49,1.67.04,1.72,43.22,3.6,85.44,14.18,125.8,27.09,40.48,12.94,79.11,28.12,118.26,41.8,9.79,3.4,23.45-27.98,13.29-32.72"/>
  <path class="st2" d="M973.27,481.51c-102.58,3.56-204.46,32.76-295.18,78.5-.56.26.04,1.76.64,1.57,48.72-14.51,99.09-22.88,148.92-28.95,49.93-6.09,99.3-9.95,148.41-15.91,12.31-1.5,10.25-35.68-2.79-35.21"/>
  <path class="st2" d="M946.31,508.76c-45.99,32.36-94.84,60.59-146.33,83.82-51.45,23.22-105.57,41.45-161.53,53.12-.7.16-.49,1.76.22,1.71,57.19-2.8,115.56-11.05,172.12-28.52,56.43-17.4,110.97-44.28,156.97-82.08,11.7-9.6-9.94-36.13-21.45-28.04"/>
  <path class="st2" d="M971.25,477.8c-62.48-13.12-127.33-16.42-191.09-10.55-63.78,5.83-126.5,20.75-185.39,43.42-.72.27-.25,1.8.5,1.64,61.5-14.1,124.7-18.21,186.63-16.69,62.08,1.53,122.86,8.58,183.31,16.97,15.13,2.1,21.96-31.47,6.04-34.79"/>
  <path class="st1" d="M855.45,474.92c0-56.54,45.84-102.4,102.4-102.4s102.4,45.86,102.4,102.4-45.85,102.4-102.4,102.4-102.4-45.85-102.4-102.4"/>
</svg>