<?xml version="1.0" encoding="UTF-8" standalone="no"?>
<!DOCTYPE svg PUBLIC "-//W3C//DTD SVG 1.1//EN" "http://www.w3.org/Graphics/SVG/1.1/DTD/svg11.dtd">
<svg width="100%" height="100%" viewBox="0 0 114 88" version="1.1" xmlns="http://www.w3.org/2000/svg" xmlns:xlink="http://www.w3.org/1999/xlink" xml:space="preserve" xmlns:serif="http://www.serif.com/" style="fill-rule:evenodd;clip-rule:evenodd;stroke-linejoin:round;stroke-miterlimit:2;">
    <g id="Artboard1" transform="matrix(0.898805,0,0,0.840724,-108.039,-129.552)">
        <rect x="120.203" y="154.096" width="126.391" height="103.553" style="fill:none;"/>
        <g id="OBJECTS" transform="matrix(1.11259,0,0,1.18945,-27.5375,-39.2686)">
            <g id="eight">
                <g transform="matrix(1,0,0,1,155.53,204.593)">
                    <path d="M0,-3.65C-2.197,-6.956 -4.541,-10.236 -5.838,-13.988C-7.135,-17.739 -7.246,-22.129 -5.1,-25.467C-2.954,-28.807 1.854,-30.516 5.228,-28.425C4.005,-31.773 5.77,-35.921 9.029,-37.363C12.289,-38.804 16.545,-37.32 18.201,-34.163C18.016,-36.594 20.304,-38.751 22.735,-38.94C25.166,-39.129 27.512,-37.715 29.011,-35.792C30.51,-33.869 31.294,-31.492 31.918,-29.135C33.561,-22.933 34.283,-16.519 34.621,-10.112C35.309,2.898 34.403,16.113 30.514,28.546C29.718,31.09 28.451,33.933 25.879,34.63C22.747,35.479 19.851,32.574 18.435,29.654C17.02,26.735 5.576,4.736 0,-3.65" style="fill:rgb(232,144,44);fill-rule:nonzero;"/>
                </g>
                <g transform="matrix(1,0,0,1,220.596,227.851)">
                    <path d="M0,-49.013C0.996,-52.691 -1.122,-56.948 -4.657,-58.371C-8.191,-59.795 -12.669,-58.195 -14.5,-54.853C-14.789,-58.367 -16.975,-60.734 -19.485,-61.209C-21.996,-61.683 -24.607,-60.576 -26.485,-58.843C-28.362,-57.109 -29.617,-54.815 -30.716,-52.508C-40.11,-32.782 -40.193,-10.013 -38.853,11.021C-37.574,12.625 -35.03,12.67 -33.232,11.682C-31.436,10.695 -30.209,8.945 -29.048,7.254C-22.936,-1.644 -16.824,-10.541 -10.712,-19.439C-6.798,-25.137 -2.733,-30.985 3.065,-34.749C5.516,-36.34 8.419,-37.729 9.54,-40.426C10.386,-42.46 9.916,-44.973 8.395,-46.565C6.872,-48.157 4.382,-48.738 0,-49.013" style="fill:rgb(232,144,44);fill-rule:nonzero;"/>
                </g>
                <g transform="matrix(1,0,0,1,182.406,195.875)">
                    <path d="M0,43.273C2.183,45.587 5.854,45.88 8.899,44.96C11.944,44.04 14.57,42.128 17.297,40.49C25.277,35.696 34.562,33.095 43.871,33.044C46.799,33.028 49.776,33.254 52.614,32.53C55.451,31.805 58.206,29.88 58.931,27.044C59.655,24.207 57.45,20.721 53.826,21.454C55.638,19.818 57.308,17.937 58.21,15.669C59.112,13.4 59.148,10.684 57.835,8.626C56.521,6.568 53.697,5.445 50.885,6.669C52.696,5.465 53.068,2.742 52.007,0.845C50.945,-1.053 48.779,-2.14 46.618,-2.373C44.456,-2.607 42.283,-2.099 40.209,-1.448C30.9,1.473 22.666,7.327 16.112,14.554C9.559,21.781 4.615,30.351 0,43.273" style="fill:rgb(232,144,44);fill-rule:nonzero;"/>
                </g>
                <g transform="matrix(1,0,0,1,180.899,193.825)">
                    <path d="M0,45.698C-4.569,46.741 -9.364,45.039 -13.316,42.519C-17.269,39.998 -20.647,36.679 -24.477,33.976C-28.306,31.273 -32.843,29.145 -37.514,29.535C-39.602,29.709 -42.156,30.203 -43.414,28.527C-44.17,27.52 -44.058,26.063 -43.474,24.947C-42.889,23.832 -41.913,22.981 -40.433,22.277C-41.843,19.94 -43.275,17.549 -43.852,14.881C-44.427,12.213 -44,9.171 -42.082,7.228C-39.704,4.82 -35.829,4.755 -31.279,5.663C-32.698,4.234 -32.271,1.606 -30.716,0.324C-29.162,-0.957 -26.879,-1.043 -24.98,-0.369C-23.083,0.304 -21.492,1.626 -20.003,2.982C-8.338,13.594 -0.155,27.974 0,45.698" style="fill:rgb(232,144,44);fill-rule:nonzero;"/>
                </g>
                <g transform="matrix(1,0,0,1,173.673,212.308)">
                    <path d="M0,18.125C-0.501,17.658 -0.981,17.17 -1.493,16.703C-2.005,16.23 -2.507,15.782 -3.09,15.282C-4.23,14.317 -5.457,13.424 -6.713,12.579C-7.971,11.732 -9.255,10.926 -10.526,10.115C-11.16,9.708 -11.795,9.302 -12.417,8.885C-13.053,8.453 -13.689,8.021 -14.327,7.588C-16.931,5.845 -19.585,4.241 -22.088,2.578C-24.595,0.939 -26.902,-0.884 -29.117,-2.561C-29.66,-2.97 -29.907,-2.682 -29.396,-2.225C-27.266,-0.302 -25.222,1.768 -22.991,3.682C-20.781,5.607 -18.498,7.458 -16.268,9.332L-14.595,10.746C-14.021,11.232 -13.436,11.694 -12.847,12.151C-11.668,13.058 -10.47,13.919 -9.287,14.762C-8.104,15.605 -6.937,16.436 -5.813,17.282C-4.663,18.169 -3.517,19.053 -2.375,19.934C-2.16,20.095 -1.955,20.245 -1.752,20.369C-1.547,20.489 -1.362,20.584 -1.196,20.662C-0.867,20.816 -0.616,20.899 -0.392,20.956C0.05,21.061 0.44,21.095 0.755,20.969C1.062,20.845 1.287,20.533 1.223,19.995C1.188,19.729 1.07,19.412 0.855,19.085C0.644,18.757 0.34,18.432 0,18.125" style="fill:rgb(216,91,5);fill-rule:nonzero;"/>
                </g>
                <g transform="matrix(1,0,0,1,173.791,211.052)">
                    <path d="M0,16.906C-0.757,15.931 -1.586,14.997 -2.406,14.068C-3.24,13.123 -4.136,12.165 -5.075,11.225C-6.95,9.348 -9.059,7.485 -11.29,5.844C-13.492,4.206 -15.739,2.617 -17.921,1.07C-18.464,0.687 -19.004,0.291 -19.57,-0.086C-20.132,-0.459 -20.696,-0.809 -21.261,-1.141C-21.826,-1.472 -22.391,-1.784 -22.954,-2.08C-23.503,-2.355 -24.031,-2.706 -24.671,-2.928C-24.993,-3.04 -25.218,-2.939 -25.214,-2.839C-25.215,-2.733 -25.087,-2.638 -24.828,-2.521C-24.273,-2.269 -23.78,-1.863 -23.244,-1.511C-22.723,-1.152 -22.211,-0.777 -21.712,-0.387C-21.213,0.003 -20.727,0.407 -20.255,0.829C-19.786,1.246 -19.331,1.695 -18.863,2.139C-17.012,3.922 -15.152,5.712 -13.294,7.501C-11.416,9.269 -9.688,11.094 -7.935,12.96C-7.053,13.89 -6.174,14.819 -5.299,15.744C-4.86,16.2 -4.395,16.677 -3.93,17.128C-3.466,17.58 -3.002,18.019 -2.544,18.45C-1.214,19.695 -0.145,19.946 0.426,19.59C0.991,19.236 1.005,18.196 0,16.906" style="fill:rgb(216,91,5);fill-rule:nonzero;"/>
                </g>
                <g transform="matrix(1,0,0,1,178.035,207.563)">
                    <path d="M0,21.182C-0.089,20.891 -0.188,20.585 -0.312,20.269C-0.44,19.947 -0.589,19.63 -0.744,19.331C-1.055,18.731 -1.393,18.183 -1.688,17.67C-1.985,17.138 -2.285,16.599 -2.588,16.055C-2.918,15.48 -3.287,14.881 -3.724,14.29C-3.941,13.995 -4.178,13.701 -4.426,13.419C-4.608,13.212 -4.788,12.99 -4.971,12.754C-5.335,12.283 -5.707,11.751 -6.123,11.19C-6.332,10.91 -6.552,10.622 -6.789,10.334L-7.139,9.926L-7.476,9.541C-7.928,9.029 -8.388,8.52 -8.857,8.016C-10.735,6.005 -12.756,4.077 -14.892,2.41C-15.42,2.007 -15.945,1.607 -16.466,1.21C-16.977,0.817 -17.478,0.417 -17.969,0.015C-18.95,-0.791 -19.891,-1.609 -20.789,-2.417C-21.229,-2.813 -21.503,-2.551 -21.098,-2.108C-20.246,-1.18 -19.392,-0.248 -18.533,0.686C-18.1,1.151 -17.661,1.614 -17.215,2.073L-15.883,3.435C-14.15,5.26 -12.599,7.256 -11.111,9.306L-10.005,10.853C-9.646,11.369 -9.253,11.905 -8.945,12.385C-8.623,12.887 -8.307,13.43 -7.954,13.991C-7.777,14.271 -7.592,14.557 -7.392,14.843C-7.29,14.986 -7.187,15.129 -7.078,15.272L-6.768,15.669C-6.084,16.547 -5.52,17.576 -4.868,18.692C-4.709,18.967 -4.505,19.293 -4.324,19.564L-3.783,20.363C-3.435,20.873 -3.14,21.325 -2.905,21.778C-2.555,22.467 -2.091,23.154 -1.591,23.534C-1.095,23.923 -0.627,23.995 -0.329,23.849C-0.024,23.702 0.135,23.363 0.191,22.925C0.242,22.481 0.225,21.947 0,21.182" style="fill:rgb(216,91,5);fill-rule:nonzero;"/>
                </g>
                <g transform="matrix(1,0,0,1,177.895,189.415)">
                    <path d="M0,41.976C0.021,41.763 0.043,41.548 0.064,41.333C0.084,41.096 0.102,40.857 0.114,40.618C0.139,40.139 0.148,39.656 0.143,39.171C0.133,38.203 0.065,37.229 -0.036,36.261C-0.133,35.306 -0.277,34.288 -0.473,33.305C-0.666,32.315 -0.903,31.334 -1.165,30.362C-1.426,29.392 -1.714,28.425 -2.003,27.475C-2.283,26.529 -2.564,25.579 -2.848,24.624C-3.407,22.704 -3.968,20.747 -4.578,18.785C-5.188,16.829 -5.841,14.85 -6.654,12.922C-7.061,11.959 -7.508,11.011 -8.006,10.093C-8.513,9.167 -9.02,8.331 -9.537,7.464C-10.056,6.607 -10.579,5.762 -11.113,4.934C-11.638,4.106 -12.205,3.286 -12.712,2.506C-13.729,0.916 -14.606,-0.735 -15.457,-2.339C-15.875,-3.125 -16.221,-2.97 -15.85,-2.149C-15.076,-0.428 -14.321,1.316 -13.429,3.016C-12.509,4.695 -11.636,6.366 -10.819,8.091C-10.413,8.947 -10.003,9.823 -9.63,10.679C-9.265,11.539 -8.94,12.418 -8.654,13.312C-8.078,15.1 -7.641,16.942 -7.222,18.805C-6.813,20.679 -6.404,22.554 -5.996,24.425C-5.786,25.366 -5.569,26.308 -5.339,27.249C-5.107,28.196 -4.856,29.126 -4.623,30.038C-4.151,31.871 -3.718,33.674 -3.432,35.46C-3.152,37.278 -2.917,39.101 -2.879,40.847C-2.869,41.176 -2.862,41.443 -2.846,41.768C-2.826,42.16 -2.78,42.449 -2.734,42.708C-2.64,43.222 -2.542,43.582 -2.446,43.867C-2.26,44.414 -2.07,44.643 -1.832,44.897C-1.709,45.015 -1.566,45.101 -1.372,45.089C-1.174,45.081 -0.941,44.953 -0.721,44.685C-0.503,44.419 -0.323,44.023 -0.207,43.55C-0.088,43.08 -0.041,42.519 0,41.976" style="fill:rgb(216,91,5);fill-rule:nonzero;"/>
                </g>
                <g transform="matrix(1,0,0,1,181.19,184.522)">
                    <path d="M0,45.581C0.234,43.673 0.408,41.662 0.358,39.548C0.332,38.492 0.247,37.411 0.076,36.317C-0.015,35.793 -0.106,35.268 -0.198,34.74C-0.293,34.229 -0.388,33.716 -0.482,33.202C-0.873,31.144 -1.305,29.062 -1.765,26.968C-1.886,26.434 -2.006,25.898 -2.127,25.362C-2.256,24.818 -2.397,24.281 -2.543,23.748C-2.836,22.683 -3.152,21.64 -3.459,20.609C-3.768,19.575 -4.061,18.564 -4.324,17.536C-4.597,16.477 -4.882,15.424 -5.176,14.379C-5.765,12.289 -6.388,10.228 -7.018,8.205C-7.336,7.194 -7.652,6.191 -7.966,5.197C-8.282,4.208 -8.583,3.215 -8.937,2.235C-9.287,1.258 -9.688,0.303 -10.158,-0.602C-10.275,-0.828 -10.398,-1.05 -10.524,-1.27C-10.65,-1.497 -10.813,-1.728 -10.963,-1.923C-11.269,-2.323 -11.576,-2.684 -11.782,-3.067C-11.979,-3.434 -12.073,-3.621 -12.184,-3.617C-12.277,-3.619 -12.385,-3.341 -12.175,-2.875C-11.954,-2.4 -11.641,-1.992 -11.37,-1.577C-11.095,-1.173 -10.905,-0.717 -10.702,-0.259C-10.311,0.658 -10.005,1.611 -9.747,2.58C-9.489,3.546 -9.281,4.538 -9.059,5.53C-8.844,6.521 -8.628,7.515 -8.412,8.508C-7.99,10.498 -7.587,12.494 -7.214,14.495C-7.027,15.495 -6.849,16.497 -6.678,17.499C-6.515,18.494 -6.324,19.547 -6.113,20.549C-5.693,22.571 -5.223,24.547 -4.909,26.499C-4.577,28.516 -4.245,30.53 -3.914,32.539C-3.742,33.545 -3.571,34.549 -3.4,35.552L-3.153,37.003C-3.084,37.47 -3.023,37.939 -2.979,38.413C-2.796,40.309 -2.8,42.253 -2.838,44.229C-2.913,47.112 -2.353,48.761 -1.693,48.98C-1.038,49.202 -0.318,48.089 0,45.581" style="fill:rgb(216,91,5);fill-rule:nonzero;"/>
                </g>
                <g transform="matrix(1,0,0,1,182.287,186.419)">
                    <path d="M0,43.984C0.366,42.197 0.651,40.332 0.839,38.405C1.032,36.486 1.097,34.466 1.109,32.507C1.12,31.519 1.121,30.523 1.114,29.521C1.109,29.02 1.104,28.517 1.099,28.013L1.086,27.253C1.081,26.986 1.074,26.72 1.062,26.455C0.974,24.33 0.677,22.265 0.39,20.253C-0.215,16.295 -0.436,12.197 -1.073,8.19C-1.234,7.191 -1.421,6.2 -1.64,5.226C-1.762,4.74 -1.858,4.261 -2.019,3.754C-2.174,3.259 -2.363,2.792 -2.564,2.34C-2.966,1.437 -3.415,0.597 -3.807,-0.239C-4.005,-0.64 -4.139,-1.053 -4.289,-1.501C-4.366,-1.725 -4.44,-1.942 -4.538,-2.178C-4.644,-2.416 -4.76,-2.609 -4.841,-2.795C-5,-3.141 -5.036,-3.284 -5.145,-3.319C-5.191,-3.328 -5.257,-3.287 -5.295,-3.167C-5.335,-3.05 -5.329,-2.855 -5.246,-2.633C-5.162,-2.402 -5.052,-2.189 -4.979,-1.978C-4.907,-1.762 -4.846,-1.534 -4.786,-1.307C-4.671,-0.853 -4.549,-0.371 -4.366,0.076C-4.026,0.971 -3.651,1.846 -3.351,2.734C-3.2,3.178 -3.07,3.626 -2.976,4.075C-2.882,4.515 -2.827,4.996 -2.758,5.461C-2.64,6.4 -2.557,7.344 -2.496,8.291C-2.264,12.084 -2.442,15.928 -2.222,19.84C-2.116,21.776 -1.977,23.683 -1.962,25.548C-1.949,26.484 -1.992,27.384 -2.027,28.362C-2.061,29.322 -2.093,30.281 -2.126,31.239C-2.154,32.197 -2.183,33.154 -2.211,34.109C-2.237,35.054 -2.274,35.984 -2.324,36.92C-2.421,38.788 -2.568,40.649 -2.739,42.504C-2.994,45.2 -2.601,46.737 -1.97,47.025C-1.348,47.312 -0.49,46.339 0,43.984" style="fill:rgb(216,91,5);fill-rule:nonzero;"/>
                </g>
                <g transform="matrix(1,0,0,1,181.196,181.713)">
                    <path d="M0,48.505C0.026,47.966 0.046,47.44 0.089,46.946C0.129,46.407 0.17,45.864 0.212,45.317C0.291,44.228 0.366,43.134 0.464,42.041C0.559,40.948 0.679,39.857 0.838,38.77C1.001,37.674 1.195,36.564 1.413,35.439C1.844,33.19 2.357,30.874 2.794,28.487C3.229,26.118 3.603,23.793 4.239,21.597C4.401,21.05 4.57,20.506 4.77,19.98C4.97,19.439 5.194,18.875 5.413,18.325C5.857,17.219 6.319,16.116 6.789,15.015C7.265,13.904 7.738,12.797 8.21,11.695C8.717,10.448 8.913,9.274 9.303,8.289C9.498,7.785 9.746,7.281 10.009,6.763C10.271,6.238 10.533,5.715 10.794,5.195C11.309,4.159 11.819,3.154 12.407,2.219C12.7,1.752 13.013,1.302 13.348,0.876C13.701,0.446 14.051,0.019 14.399,-0.406C14.753,-0.832 15.104,-1.255 15.452,-1.674C15.616,-1.876 15.827,-2.107 15.987,-2.341C16.141,-2.564 16.293,-2.787 16.445,-3.009C16.732,-3.412 16.857,-3.619 16.796,-3.708C16.742,-3.789 16.443,-3.706 16.099,-3.274L15.584,-2.609C15.416,-2.394 15.222,-2.209 15.028,-1.998L13.871,-0.771C13.483,-0.359 13.097,0.04 12.707,0.467C12.324,0.894 11.966,1.344 11.628,1.807C10.951,2.734 10.356,3.713 9.771,4.684L8.892,6.133C8.594,6.618 8.291,7.117 8.026,7.651C7.488,8.735 7.187,9.854 6.726,10.804C6.615,11.033 6.479,11.281 6.345,11.535L5.943,12.288L5.142,13.798C4.608,14.807 4.078,15.823 3.563,16.85C3.053,17.88 2.537,18.898 2.079,20.016C1.188,22.224 0.622,24.506 0.097,26.729C-0.432,28.943 -0.958,31.156 -1.484,33.363C-1.99,35.6 -2.44,37.889 -2.653,40.237C-2.869,42.574 -2.894,44.845 -2.909,47.107C-2.902,48.01 -2.817,48.709 -2.743,49.297C-2.664,49.884 -2.587,50.344 -2.509,50.723C-2.349,51.472 -2.203,51.918 -1.929,52.148C-1.792,52.257 -1.628,52.294 -1.433,52.228C-1.237,52.163 -1.012,51.989 -0.8,51.684C-0.357,51.081 -0.054,49.932 0,48.505" style="fill:rgb(216,91,5);fill-rule:nonzero;"/>
                </g>
                <g transform="matrix(1,0,0,1,181.687,185.081)">
                    <path d="M0,45.243C0.09,44.163 0.124,43.141 0.304,42.229C0.482,41.273 0.771,40.277 1.061,39.208C1.205,38.681 1.353,38.103 1.478,37.554C1.604,37.018 1.729,36.48 1.855,35.939C2.112,34.864 2.378,33.819 2.7,32.77C3.356,30.592 4.021,28.4 4.761,26.226C5.133,25.139 5.52,24.061 5.937,22.98C6.354,21.893 6.784,20.81 7.231,19.736C7.678,18.661 8.143,17.596 8.63,16.543C9.117,15.481 9.618,14.478 10.18,13.471C10.736,12.468 11.332,11.482 11.949,10.51C12.569,9.548 13.213,8.55 13.841,7.625C14.159,7.16 14.484,6.71 14.825,6.279C15.157,5.86 15.549,5.415 15.908,4.967C16.272,4.519 16.628,4.065 16.969,3.602C17.314,3.137 17.618,2.676 17.942,2.217C19.218,0.397 20.465,-1.382 21.674,-3.107C21.979,-3.507 22.083,-3.756 22.01,-3.83C21.939,-3.901 21.681,-3.785 21.335,-3.383C19.962,-1.652 18.587,0.053 17.187,1.762C16.495,2.627 15.792,3.456 15.024,4.243C14.646,4.641 14.253,5.017 13.857,5.437C13.469,5.852 13.098,6.282 12.739,6.718C12.021,7.596 11.354,8.465 10.661,9.355C9.978,10.245 9.31,11.155 8.67,12.09C8.031,13.024 7.42,13.992 6.856,14.979C6.293,15.959 5.755,16.954 5.236,17.958C4.204,19.972 3.242,21.997 2.359,24.097C1.486,26.19 0.719,28.318 0.015,30.445L-0.505,32.042C-0.68,32.597 -0.84,33.152 -0.987,33.707C-1.281,34.816 -1.526,35.919 -1.76,37.002C-1.978,38.034 -2.263,39.08 -2.501,40.225C-2.62,40.795 -2.723,41.387 -2.794,42C-2.866,42.643 -2.88,43.256 -2.88,43.832C-2.88,44.251 -2.863,44.63 -2.844,44.971C-2.823,45.312 -2.801,45.612 -2.772,45.922C-2.718,46.533 -2.625,47.115 -2.479,47.597C-2.186,48.577 -1.71,49.069 -1.365,49.102C-1.01,49.144 -0.772,48.786 -0.575,48.168C-0.476,47.855 -0.377,47.476 -0.274,47.005C-0.174,46.533 -0.062,45.962 0,45.243" style="fill:rgb(216,91,5);fill-rule:nonzero;"/>
                </g>
                <g transform="matrix(1,0,0,1,182.607,193.618)">
                    <path d="M0,36.562C0.178,35.735 0.397,34.962 0.687,34.15C0.986,33.27 1.257,32.381 1.527,31.5C1.797,30.62 2.064,29.748 2.363,28.899C2.513,28.475 2.667,28.055 2.835,27.644C3.004,27.226 3.187,26.79 3.373,26.36C4.115,24.632 4.948,22.863 5.737,21.005C6.521,19.142 7.221,17.328 8.058,15.599C8.267,15.168 8.483,14.743 8.708,14.325C8.931,13.909 9.173,13.502 9.428,13.069C9.931,12.22 10.442,11.381 10.97,10.56C12.025,8.918 13.15,7.346 14.396,5.911C15.018,5.194 15.668,4.51 16.354,3.874C17.105,3.185 17.739,2.418 18.332,1.688C18.927,0.953 19.503,0.268 20.152,-0.366C20.814,-1.004 21.469,-1.633 22.112,-2.253C22.736,-2.887 22.472,-3.159 21.816,-2.573C21.119,-1.966 20.384,-1.397 19.669,-0.789C18.947,-0.186 18.274,0.494 17.626,1.163C16.973,1.834 16.321,2.476 15.592,3.022C14.832,3.601 14.107,4.227 13.408,4.881C12.011,6.192 10.729,7.627 9.529,9.121C8.93,9.868 8.35,10.629 7.784,11.398C7.226,12.158 6.646,12.958 6.133,13.793C5.098,15.453 4.236,17.187 3.405,18.885C2.592,20.562 1.717,22.218 0.888,23.947C0.475,24.814 0.076,25.68 -0.297,26.599C-0.673,27.529 -0.98,28.469 -1.252,29.396C-1.524,30.325 -1.761,31.242 -1.994,32.139L-2.343,33.467C-2.473,33.949 -2.589,34.468 -2.676,34.971C-2.927,36.453 -2.806,37.577 -2.603,38.332C-2.393,39.09 -2.08,39.506 -1.754,39.614C-1.427,39.721 -1.082,39.51 -0.782,38.99C-0.479,38.471 -0.229,37.642 0,36.562" style="fill:rgb(216,91,5);fill-rule:nonzero;"/>
                </g>
                <g transform="matrix(1,0,0,1,186.476,204.573)">
                    <path d="M0,30.612C0.168,30.227 0.337,29.84 0.507,29.449C0.668,29.054 0.831,28.655 0.994,28.255C1.311,27.496 1.663,26.741 2.044,25.988C2.426,25.236 2.834,24.485 3.273,23.741C3.491,23.368 3.718,22.998 3.951,22.629C4.195,22.237 4.44,21.842 4.687,21.447C5.665,19.838 6.562,18.203 7.513,16.64C7.987,15.858 8.476,15.091 8.992,14.367C9.512,13.635 10.079,12.917 10.671,12.203C11.853,10.781 13.155,9.361 14.404,7.921C15.649,6.502 16.9,5.126 18.223,3.867C19.541,2.611 20.946,1.465 22.419,0.519C23.158,0.054 23.943,-0.359 24.719,-0.792C25.101,-1.003 25.504,-1.243 25.855,-1.455C26.208,-1.658 26.597,-1.825 26.989,-2.006C27.037,-2.028 27.08,-2.045 27.139,-2.066C27.234,-2.101 27.351,-2.147 27.453,-2.23C27.56,-2.313 27.625,-2.435 27.64,-2.523C27.664,-2.702 27.598,-2.762 27.553,-2.767C27.5,-2.773 27.451,-2.712 27.381,-2.64C27.308,-2.565 27.214,-2.535 27.004,-2.481C26.945,-2.464 26.881,-2.445 26.818,-2.421C26.405,-2.264 25.981,-2.12 25.568,-1.921C25.165,-1.717 24.775,-1.529 24.368,-1.346C23.561,-0.981 22.732,-0.638 21.921,-0.223C20.309,0.615 18.785,1.619 17.337,2.729C15.889,3.838 14.518,5.046 13.184,6.277C11.859,7.514 10.531,8.71 9.211,9.998C8.556,10.642 7.91,11.307 7.288,12.008C6.667,12.706 6.072,13.455 5.525,14.205C4.427,15.71 3.456,17.264 2.502,18.777C2.021,19.529 1.541,20.281 1.061,21.032C0.561,21.825 0.09,22.638 -0.339,23.476C-0.771,24.312 -1.16,25.173 -1.508,26.053C-1.679,26.496 -1.842,26.942 -1.989,27.394L-2.389,28.664C-2.789,29.861 -2.978,31.027 -2.863,31.868C-2.759,32.718 -2.421,33.189 -2.098,33.284C-1.764,33.385 -1.439,33.148 -1.115,32.699C-0.786,32.241 -0.437,31.593 0,30.612" style="fill:rgb(216,91,5);fill-rule:nonzero;"/>
                </g>
                <g transform="matrix(1,0,0,1,186.135,213.889)">
                    <path d="M0,22.178C0.768,20.927 1.753,19.731 2.854,18.616C3.935,17.522 5.235,16.469 6.577,15.407C7.956,14.327 9.356,13.23 10.768,12.125C12.174,11.015 13.576,9.875 14.973,8.719L16.018,7.849C16.38,7.557 16.754,7.261 17.108,6.964C17.803,6.377 18.496,5.791 19.187,5.207C19.87,4.638 20.545,4.101 21.253,3.613C21.97,3.116 22.703,2.649 23.454,2.213C24.204,1.778 24.97,1.372 25.743,0.99C26.509,0.602 27.277,0.282 28.076,-0.026C28.873,-0.336 29.671,-0.624 30.463,-0.961C31.249,-1.301 31.971,-1.67 32.716,-1.896C33.078,-2.005 33.253,-2.129 33.238,-2.232C33.226,-2.331 33.009,-2.407 32.605,-2.318C31.766,-2.129 30.973,-1.795 30.177,-1.535C29.379,-1.279 28.557,-1.066 27.733,-0.836C26.912,-0.61 26.073,-0.354 25.267,-0.049C24.458,0.249 23.652,0.569 22.856,0.918C22.06,1.267 21.272,1.648 20.5,2.059C19.724,2.47 18.961,2.934 18.232,3.413C17.5,3.891 16.789,4.385 16.083,4.864C15.377,5.351 14.678,5.782 13.959,6.281C12.53,7.256 11.102,8.23 9.675,9.204L7.539,10.675C6.841,11.175 6.144,11.675 5.447,12.174C4.046,13.193 2.643,14.274 1.331,15.531C0.004,16.823 -1.15,18.26 -2.073,19.913C-2.736,21.124 -2.977,22.244 -2.934,23.05C-2.892,23.863 -2.603,24.333 -2.294,24.457C-1.978,24.585 -1.613,24.398 -1.261,24.002C-0.892,23.604 -0.504,23.002 0,22.178" style="fill:rgb(216,91,5);fill-rule:nonzero;"/>
                </g>
                <g transform="matrix(1,0,0,1,188.012,220.747)">
                    <path d="M0,15.009C1.077,14.037 2.143,13.089 3.267,12.45C3.407,12.368 3.547,12.302 3.691,12.222L4.211,11.954C4.556,11.773 4.902,11.59 5.251,11.406C5.94,11.033 6.637,10.657 7.338,10.278C10.13,8.751 12.96,7.155 15.885,5.759C18.896,4.343 21.83,2.83 24.801,1.711C26.287,1.156 27.786,0.671 29.28,0.364C30.048,0.213 30.807,0.063 31.557,-0.085C32.277,-0.275 33.04,-0.275 33.834,-0.655C34.03,-0.759 34.176,-0.915 34.213,-1.071C34.248,-1.221 34.198,-1.302 34.152,-1.305C34.1,-1.314 34.041,-1.266 33.97,-1.217C33.897,-1.166 33.795,-1.115 33.642,-1.046C32.971,-0.778 32.165,-0.826 31.4,-0.706C30.63,-0.635 29.858,-0.564 29.085,-0.493C27.516,-0.341 25.969,-0.033 24.429,0.333C21.352,1.077 18.36,2.158 15.41,3.186C12.399,4.228 9.472,5.532 6.657,6.952C5.249,7.662 3.864,8.399 2.502,9.151L1.986,9.436C1.79,9.556 1.585,9.668 1.398,9.797C1.017,10.047 0.657,10.317 0.319,10.599C-0.36,11.162 -0.952,11.768 -1.499,12.371C-2.294,13.254 -2.717,14.01 -2.931,14.606C-3.14,15.202 -3.129,15.655 -2.941,15.938C-2.754,16.22 -2.385,16.323 -1.87,16.183C-1.356,16.045 -0.711,15.65 0,15.009" style="fill:rgb(216,91,5);fill-rule:nonzero;"/>
                </g>
                <g transform="matrix(1,0,0,1,187.326,212.309)">
                    <path d="M0,21.082C1.669,19.252 3.167,17.209 4.841,15.377C5.734,14.43 6.641,13.468 7.555,12.498C8.48,11.509 9.413,10.5 10.339,9.476C11.265,8.451 12.185,7.411 13.084,6.359L13.421,5.964L13.767,5.55L14.404,4.756C14.606,4.506 14.818,4.257 15.011,4.053C15.178,3.871 15.405,3.689 15.673,3.492C15.937,3.296 16.25,3.072 16.536,2.808C16.793,2.569 17.035,2.329 17.27,2.097C17.738,1.631 18.178,1.206 18.669,0.862C19.153,0.512 19.692,0.259 20.277,0.02L20.732,-0.169C20.903,-0.248 21.048,-0.335 21.186,-0.421C21.459,-0.592 21.707,-0.764 21.951,-0.882C22.182,-0.994 22.273,-1.087 22.275,-1.194C22.278,-1.293 22.095,-1.398 21.784,-1.286C21.47,-1.17 21.187,-1.008 20.903,-0.873C20.762,-0.805 20.621,-0.742 20.483,-0.699L20.024,-0.568C19.406,-0.396 18.763,-0.183 18.17,0.139C16.969,0.763 16.026,1.75 14.949,2.263C14.663,2.416 14.353,2.583 14.049,2.807C13.75,3.034 13.505,3.248 13.251,3.476C12.748,3.933 12.305,4.365 11.815,4.782L8.871,7.332C6.898,9.031 4.921,10.745 3.026,12.567C1.037,14.484 -0.529,16.706 -1.943,18.826C-2.969,20.373 -3.03,21.498 -2.573,21.991C-2.117,22.48 -1.1,22.291 0,21.082" style="fill:rgb(216,91,5);fill-rule:nonzero;"/>
                </g>
                <g transform="matrix(1,0,0,1,187.011,224.771)">
                    <path d="M0,12.515C0.158,12.492 0.327,12.462 0.507,12.419C0.597,12.398 0.688,12.374 0.784,12.344C0.887,12.311 0.918,12.31 0.988,12.292C1.234,12.235 1.494,12.186 1.771,12.137C2.324,12.037 2.953,11.94 3.649,11.746C4.246,11.56 4.849,11.372 5.457,11.182C6.048,11.003 6.667,10.817 7.306,10.598C7.943,10.381 8.603,10.133 9.266,9.823C9.934,9.513 10.556,9.16 11.147,8.8C12.338,8.075 13.373,7.342 14.473,6.73C16.732,5.445 19.136,4.287 21.506,3.17C21.803,3.031 22.098,2.891 22.393,2.753L22.834,2.546C22.964,2.483 23.095,2.426 23.231,2.371C23.505,2.263 23.798,2.168 24.104,2.072C24.388,1.986 24.782,1.861 25.079,1.707C25.359,1.564 25.638,1.422 25.915,1.28C26.044,1.218 26.171,1.163 26.298,1.119C26.46,1.063 26.608,1.005 26.755,0.948C27.329,0.719 27.882,0.486 28.412,0.391C28.663,0.351 28.78,0.279 28.806,0.175C28.829,0.08 28.685,-0.06 28.367,-0.043C27.721,0.007 27.112,0.2 26.513,0.355C26.359,0.397 26.221,0.428 26.063,0.463C25.901,0.5 25.742,0.547 25.588,0.599C25.279,0.703 24.989,0.823 24.705,0.913C24.171,1.088 23.522,1.122 22.881,1.284C22.721,1.322 22.556,1.367 22.397,1.415L21.945,1.551L21.039,1.823C18.619,2.545 16.171,3.279 13.762,4.234C13.168,4.469 12.544,4.73 11.951,5.017C11.36,5.301 10.788,5.595 10.23,5.876C9.673,6.158 9.128,6.427 8.59,6.661C8.054,6.899 7.527,7.09 6.96,7.277C5.833,7.647 4.616,7.96 3.355,8.407L2.882,8.58C2.766,8.622 2.646,8.663 2.521,8.702C2.271,8.782 1.999,8.856 1.707,8.935C1.124,9.093 0.444,9.268 -0.27,9.568C-0.425,9.636 -0.572,9.7 -0.71,9.76C-0.857,9.825 -1.024,9.898 -1.195,9.984C-1.365,10.068 -1.541,10.165 -1.705,10.275C-1.871,10.384 -2.015,10.503 -2.087,10.596C-2.238,10.777 -2.099,10.869 -2.136,11.025C-2.157,11.175 -2.243,11.326 -2.285,11.485C-2.331,11.645 -2.349,11.812 -2.296,11.983C-2.243,12.15 -2.122,12.333 -1.854,12.437C-1.577,12.544 -1.223,12.522 -0.974,12.546C-0.717,12.564 -0.418,12.575 0,12.515" style="fill:rgb(216,91,5);fill-rule:nonzero;"/>
                </g>
                <g transform="matrix(-0.968297,-0.2498,-0.2498,0.968297,187.57,189.127)">
                    <path d="M-4.049,47.249L-3.661,47.249C-3.617,31.269 1.166,15.066 9.808,1.623L9.481,1.413C0.8,14.916 -4.006,31.195 -4.049,47.249" style="fill:rgb(255,254,251);fill-rule:nonzero;"/>
                </g>
                <g transform="matrix(-0.929364,-0.369164,-0.369164,0.929364,194.045,198.123)">
                    <path d="M-1.237,41.584L-0.849,41.584C-0.805,27.426 2.78,13.359 9.519,0.906L9.177,0.721C2.408,13.23 -1.193,27.361 -1.237,41.584" style="fill:rgb(255,254,251);fill-rule:nonzero;"/>
                </g>
                <g transform="matrix(-0.996807,-0.0798476,-0.0798476,0.996807,179.583,196.994)">
                    <path d="M-2.823,37.604L-2.434,37.604C-2.43,24.999 -0.77,12.436 2.5,0.263L2.126,0.163C-1.154,12.368 -2.818,24.965 -2.823,37.604" style="fill:rgb(255,254,251);fill-rule:nonzero;"/>
                </g>
                <g transform="matrix(-0.904,-0.427533,-0.427533,0.904,200.487,194.753)">
                    <path d="M-0.37,43.629L0.019,43.629C0.01,28.665 3.432,13.627 9.915,0.142L9.565,-0.026C3.057,13.512 -0.378,28.607 -0.37,43.629" style="fill:rgb(255,254,251);fill-rule:nonzero;"/>
                </g>
                <g transform="matrix(-0.765045,-0.643977,-0.643977,0.765045,208.647,206.763)">
                    <path d="M0.009,40.883L0.397,40.883C0.389,26.035 5.57,11.536 14.987,0.056L14.686,-0.191C5.214,11.36 0.001,25.946 0.009,40.883" style="fill:rgb(255,254,251);fill-rule:nonzero;"/>
                </g>
                <g transform="matrix(-0.864246,-0.503069,-0.503069,0.864246,207.467,192.154)">
                    <path d="M-0.512,49.355L-0.125,49.355C-0.149,32.296 4.782,14.913 13.761,0.409L13.432,0.204C4.415,14.768 -0.537,32.225 -0.512,49.355" style="fill:rgb(255,254,251);fill-rule:nonzero;"/>
                </g>
                <g transform="matrix(-0.949966,-0.312353,-0.312353,0.949966,195.86,186.688)">
                    <path d="M-2.078,47.004L-1.691,47.004C-1.68,30.998 2.647,15.265 10.824,1.505L10.49,1.307C2.278,15.127 -2.069,30.929 -2.078,47.004" style="fill:rgb(255,254,251);fill-rule:nonzero;"/>
                </g>
                <g transform="matrix(1,0,0,1,182.547,218.826)">
                    <path d="M0,27.952C2.229,23.016 2.525,17.239 0.812,12.101C-0.9,6.964 -4.604,2.519 -9.03,0C-12.35,9.39 -9.231,20.695 0,27.952" style="fill:rgb(56,96,83);fill-rule:nonzero;"/>
                </g>
                <g transform="matrix(1,0,0,1,182.047,236.106)">
                    <path d="M0,-7.816C2.909,-14.104 9.441,-18.551 16.358,-18.953C15.768,-7.282 9.845,4.014 0.581,11.137C-2.183,5.04 -2.553,-2.3 0,-7.816" style="fill:rgb(56,96,83);fill-rule:nonzero;"/>
                </g>
                <g transform="matrix(1,0,0,1,177.445,190.114)">
                    <path d="M0,-3.872C-2.491,-3.872 -2.495,0 0,0C2.49,0 2.495,-3.872 0,-3.872" style="fill:rgb(81,48,16);fill-rule:nonzero;"/>
                </g>
                <g transform="matrix(1,0,0,1,185.556,186.637)">
                    <path d="M0,-3.871C-2.491,-3.871 -2.495,0 0,0C2.491,0 2.495,-3.871 0,-3.871" style="fill:rgb(81,48,16);fill-rule:nonzero;"/>
                </g>
                <g transform="matrix(1,0,0,1,191.64,193.3)">
                    <path d="M0,-3.871C-2.491,-3.871 -2.495,0 0,0C2.49,0 2.495,-3.871 0,-3.871" style="fill:rgb(81,48,16);fill-rule:nonzero;"/>
                </g>
                <g transform="matrix(1,0,0,1,184.977,196.778)">
                    <path d="M0,-3.872C-2.491,-3.872 -2.495,0 0,0C2.49,0 2.495,-3.872 0,-3.872" style="fill:rgb(81,48,16);fill-rule:nonzero;"/>
                </g>
                <g transform="matrix(1,0,0,1,195.406,187.796)">
                    <path d="M0,-3.871C-2.491,-3.871 -2.495,0 0,0C2.491,0 2.495,-3.871 0,-3.871" style="fill:rgb(81,48,16);fill-rule:nonzero;"/>
                </g>
                <g transform="matrix(1,0,0,1,197.434,198.805)">
                    <path d="M0,-3.872C-2.491,-3.872 -2.495,0 0,0C2.49,0 2.495,-3.872 0,-3.872" style="fill:rgb(81,48,16);fill-rule:nonzero;"/>
                </g>
                <g transform="matrix(1,0,0,1,177.445,198.805)">
                    <path d="M0,-3.872C-2.491,-3.872 -2.495,0 0,0C2.49,0 2.495,-3.872 0,-3.872" style="fill:rgb(81,48,16);fill-rule:nonzero;"/>
                </g>
            </g>
        </g>
    </g>
</svg>
