{
  "accessors": [
    {
      "bufferView": 2,
      "componentType": 5126,
      "count": 430,
      "max": [
        0.2919999957084656,
        2.683000087738037,
        4.320000171661377
      ],
      "min": [
        -0.2919999957084656,
        -0.024000000208616257,
        -2.6110000610351563
      ],
      "type": "VEC3"
    },
    {
      "bufferView": 2,
      "byteOffset": 5160,
      "componentType": 5126,
      "count": 430,
      "max": [
        0.9997080564498901,
        0.9999847412109375,
        0.999907374382019
      ],
      "min": [
        -0.9999364614486694,
        -0.9982995390892029,
        -0.9968013763427734
      ],
      "type": "VEC3"
    },
    {
      "bufferView": 1,
      "componentType": 5126,
      "count": 430,
      "max": [
        0.9951000213623047,
        0.9906899929046631
      ],
      "min": [
        0.013899999670684338,
        0.0018799901008605957
      ],
      "type": "VEC2"
    },
    {
      "bufferView": 0,
      "componentType": 5125,
      "count": 2052,
      "type": "SCALAR"
    },
    {
      "bufferView": 2,
      "byteOffset": 10320,
      "componentType": 5126,
      "count": 138,
      "max": [
        0.5410000085830688,
        3.0329999923706055,
        4.589000225067139
      ],
      "min": [
        -0.5410000085830688,
        0.39000001549720764,
        -2.0909998416900635
      ],
      "type": "VEC3"
    },
    {
      "bufferView": 2,
      "byteOffset": 11976,
      "componentType": 5126,
      "count": 138,
      "max": [
        1.0,
        0.9999936819076538,
        0.4342295825481415
      ],
      "min": [
        -1.0,
        -0.9999936819076538,
        -0.4342295825481415
      ],
      "type": "VEC3"
    },
    {
      "bufferView": 1,
      "byteOffset": 3440,
      "componentType": 5126,
      "count": 138,
      "max": [
        0.9987000226974487,
        0.9976699948310852
      ],
      "min": [
        0.015469999983906746,
        0.0011500120162963867
      ],
      "type": "VEC2"
    },
    {
      "bufferView": 0,
      "byteOffset": 8208,
      "componentType": 5125,
      "count": 312,
      "type": "SCALAR"
    }
  ],
  "asset": {
    "extras": {
      "author": "Jurassic Radassic (https://sketchfab.com/Radassic)",
      "license": "CC-BY-4.0 (http://creativecommons.org/licenses/by/4.0/)",
      "source": "https://sketchfab.com/3d-models/dinosaur-hunting-compsognathus-2f87df6b16df4e35ab644ec4f3e8d88c",
      "title": "Dinosaur Hunting Compsognathus"
    },
    "generator": "Sketchfab-17.7.0",
    "version": "2.0"
  },
  "bufferViews": [
    {
      "buffer": 0,
      "byteLength": 9456,
      "name": "floatBufferViews",
      "target": 34963
    },
    {
      "buffer": 0,
      "byteLength": 4544,
      "byteOffset": 9456,
      "byteStride": 8,
      "name": "floatBufferViews",
      "target": 34962
    },
    {
      "buffer": 0,
      "byteLength": 13632,
      "byteOffset": 14000,
      "byteStride": 12,
      "name": "floatBufferViews",
      "target": 34962
    }
  ],
  "buffers": [
    {
      "byteLength": 27632,
      "uri": "scene.bin"
    }
  ],
  "images": [
    {
      "uri": "textures/Compy1_baseColor.png"
    },
    {
      "uri": "textures/Compy_baseColor.png"
    }
  ],
  "materials": [
    {
      "doubleSided": true,
      "name": "Compy1",
      "pbrMetallicRoughness": {
        "baseColorTexture": {
          "index": 0
        },
        "metallicFactor": 0.0,
        "roughnessFactor": 0.8308205978495098
      }
    },
    {
      "alphaMode": "BLEND",
      "doubleSided": true,
      "name": "Compy",
      "pbrMetallicRoughness": {
        "baseColorTexture": {
          "index": 1
        },
        "metallicFactor": 0.0,
        "roughnessFactor": 0.8308205978495098
      }
    }
  ],
  "meshes": [
    {
      "name": "Compy_Compy1_0",
      "primitives": [
        {
          "attributes": {
            "NORMAL": 1,
            "POSITION": 0,
            "TEXCOORD_0": 2
          },
          "indices": 3,
          "material": 0,
          "mode": 4
        }
      ]
    },
    {
      "name": "Compy_Compy_0",
      "primitives": [
        {
          "attributes": {
            "NORMAL": 5,
            "POSITION": 4,
            "TEXCOORD_0": 6
          },
          "indices": 7,
          "material": 1,
          "mode": 4
        }
      ]
    }
  ],
  "nodes": [
    {
      "children": [
        1
      ],
      "matrix": [
        1.0,
        0.0,
        0.0,
        0.0,
        0.0,
        2.220446049250313e-16,
        -1.0,
        0.0,
        0.0,
        1.0,
        2.220446049250313e-16,
        0.0,
        0.0,
        0.0,
        0.0,
        1.0
      ],
      "name": "Sketchfab_model"
    },
    {
      "children": [
        2
      ],
      "matrix": [
        0.009999999776482582,
        0.0,
        0.0,
        0.0,
        0.0,
        0.0,
        0.009999999776482582,
        0.0,
        0.0,
        -0.009999999776482582,
        0.0,
        0.0,
        0.0,
        0.0,
        0.0,
        1.0
      ],
      "name": "Compy.fbx"
    },
    {
      "children": [
        3
      ],
      "name": "RootNode"
    },
    {
      "children": [
        4,
        5
      ],
      "matrix": [
        10.0,
        0.0,
        0.0,
        0.0,
        0.0,
        9.99999999999999,
        4.371139183945161e-07,
        0.0,
        0.0,
        -4.371139183945161e-07,
        9.99999999999999,
        0.0,
        0.0,
        0.0,
        0.0,
        1.0
      ],
      "name": "Compy"
    },
    {
      "mesh": 0,
      "name": "Compy_Compy1_0"
    },
    {
      "mesh": 1,
      "name": "Compy_Compy_0"
    }
  ],
  "samplers": [
    {
      "magFilter": 9729,
      "minFilter": 9987,
      "wrapS": 10497,
      "wrapT": 10497
    }
  ],
  "scene": 0,
  "scenes": [
    {
      "name": "Sketchfab_Scene",
      "nodes": [
        0
      ]
    }
  ],
  "textures": [
    {
      "sampler": 0,
      "source": 0
    },
    {
      "sampler": 0,
      "source": 1
    }
  ]
}
